# xmcd
#
# Track frame offsets:
#   150
#   14014
#   32703
#   44478
#   53028
#   67078
#   73088
#   86611
#   89709
#   102926
#   106004
#   118942
#   135233
#   147657
#   158498
#   172187
#   189911
#
# Disc length: 2688 seconds
#
# Revision: 0
# Processed by: cddbd v1.5.2PL0 Copyright (c) Steve Scherf et al.
# Submitted via: GXTranscoder 2.0.1939
#
DISCID=f40a7e11
DTITLE=Various Artist - Witze und Volksmusik
DYEAR=1900
DGENRE=Classical
TTITLE0=Der Morgenmuffel
TTITLE1=Witz1
TTITLE2=A Bier für die, a Bier für mi
TTITLE3=Witz2
TTITLE4=Hallo Franzlhuber
TTITLE5=witz3
TTITLE6=Lieber leding und frei
TTITLE7=Witz4
TTITLE8=Die Maseratie Kathi
TTITLE9=Witz5
TTITLE10=Ich möcht ein Playboy sein
TTITLE11=Witz6
TTITLE12=Kathi lass den Goaßbock aus
TTITLE13=Witz7
TTITLE14=Die Fischerin vom Bodensee
TTITLE15=Witz8
TTITLE16=A Gaudi muaß sei
EXTD=
EXTT0=
EXTT1=
EXTT2=
EXTT3=
EXTT4=
EXTT5=
EXTT6=
EXTT7=
EXTT8=
EXTT9=
EXTT10=
EXTT11=
EXTT12=
EXTT13=
EXTT14=
EXTT15=
EXTT16=
PLAYORDER=
